# xmcd
#
# Track frame offsets: 
#        150
#        27902
#        41397
#        64005
#        86265
#        123755
#        140022
#        161995
#        181720
#        192865
#        203487
#        214015
#
# Disc length: 3018 seconds
#
# Revision: 3
# Processed by: cddbd v1.5.2PL0 Copyright (c) Steve Scherf et al.
# Submitted via: ExactAudioCopyFreeDBPlugin 1.0
#
DISCID=9a0bc80c
DTITLE=Frijid Pink - Defrosted
DYEAR=1991
DGENRE=Hard Rock
TTITLE0=Black Lace
TTITLE1=Sing a Song for Freedom
TTITLE2=I'll Never Be Lonely
TTITLE3=Bye Bye Blues
TTITLE4=Pain in My Heart
TTITLE5=Sloony
TTITLE6=I'm Movin'
TTITLE7=I Haven't Got the Time
TTITLE8=We're Gonna Be There
TTITLE9=Shorty Kline
TTITLE10=I Love Her
TTITLE11=Lost Son
EXTD=
EXTT0=
EXTT1=
EXTT2=
EXTT3=
EXTT4=
EXTT5=
EXTT6=
EXTT7=
EXTT8=
EXTT9=
EXTT10=
EXTT11=
PLAYORDER=
